<svg xmlns="http://www.w3.org/2000/svg" viewBox="0 0 320 230"><rect width="320" height="230" fill="#e4edf8"/><ellipse cx="162" cy="203" rx="81" ry="10" fill="#c5d3e4"/><g transform="rotate(-8 160 115)"><rect x="82" y="24" width="162" height="179" rx="14" fill="#426fa2"/><path d="M82 40h39v145H82" fill="#7095bf"/><rect x="113" y="28" width="126" height="170" rx="13" fill="#29364b"/><rect x="120" y="38" width="112" height="149" rx="7" fill="#9abce7"/><path d="M120 137q60-104 112-29v71q0 8-7 8h-98q-7 0-7-8" fill="#6294c5"/><path d="M120 158q60-63 112-17v39q0 7-7 7h-98q-7 0-7-7" fill="#4075ab"/><circle cx="176" cy="33" r="2" fill="#8394aa"/><path d="M159 181h34" stroke="#d9e8f8" stroke-width="3" stroke-linecap="round"/></g></svg>
