<svg xmlns="http://www.w3.org/2000/svg" viewBox="0 0 320 230"><defs><filter id="s"><feDropShadow dx="0" dy="9" stdDeviation="7" flood-color="#334e45" flood-opacity=".18"/></filter></defs><rect width="320" height="230" fill="#efede7"/><ellipse cx="160" cy="198" rx="76" ry="11" fill="#334e45" opacity=".07"/><g filter="url(#s)"><rect x="99" y="90" width="124" height="99" rx="37" fill="#c7cbd0"/><rect x="99" y="84" width="124" height="98" rx="36" fill="#fbfaf5"/><path d="M100 119h122" stroke="#dcded9" stroke-width="3"/><circle cx="161" cy="144" r="2" fill="#94ac8c"/><g fill="#fafbf8" stroke="#d8ded8" stroke-width="2"><path d="M124 41c-23 0-25 32-4 33v31q0 10 11 10t11-10V57q0-16-18-16Z"/><path d="M196 34c23 0 25 32 4 33v31q0 10-11 10t-11-10V50q0-16 18-16Z"/></g><ellipse cx="122" cy="55" rx="6" ry="9" fill="#566864"/><ellipse cx="198" cy="48" rx="6" ry="9" fill="#566864"/></g></svg>
